<svg id="bat" enable-background="new 0 0 300 300" height="512" viewBox="0 0 300 300" width="512" xmlns="http://www.w3.org/2000/svg"><g><circle cx="168.684" cy="135.167" fill="#efefd2" r="86"/><g><path d="m139.625 169.156-4.278-4.278c-6.757-6.757-17.712-6.757-24.469 0s-6.757 17.712 0 24.469l4.277 4.277c-15.306 1.202-71.776 9.916-85.84 73.208 0 0 24.469-28.547 57.094-4.078 0 0 28.547-28.547 53.016 4.078 0 0 20.391-36.703 57.094-16.313-20.391-36.703 16.313-57.094 16.313-57.094-32.625-24.469-4.078-53.016-4.078-53.016-24.469-32.625 4.078-57.094 4.078-57.094-63.292 14.066-72.005 70.536-73.207 85.841z" fill="#6b4f5b"/><path d="m139.426 270.833c-1.254 0-2.441-.588-3.199-1.6-6.533-8.709-13.889-13.412-21.863-13.98-13.652-.932-25.012 10.219-25.125 10.33-1.408 1.41-3.637 1.568-5.229.371-29.139-21.855-50.758 2.445-51.664 3.49-1.197 1.381-3.193 1.779-4.824.957-1.637-.822-2.508-2.648-2.109-4.436 12.729-57.279 58.418-71.721 81.227-75.344-3.127-3.801-4.828-8.523-4.828-13.508 0-5.691 2.217-11.041 6.24-15.062 4.021-4.023 9.371-6.24 15.062-6.24 4.984 0 9.707 1.701 13.508 4.828 3.623-22.811 18.064-68.5 75.344-81.229 1.779-.4 3.623.471 4.445 2.115.82 1.643.418 3.631-.975 4.826-1.037.898-25.34 22.512-3.482 51.656 1.195 1.594 1.037 3.82-.371 5.229-.107.109-11.32 11.588-10.326 25.178.584 7.955 5.285 15.293 13.977 21.812 1.084.812 1.684 2.119 1.59 3.473-.092 1.352-.863 2.564-2.047 3.223-1.348.756-32.922 18.961-14.76 51.654.867 1.562.596 3.51-.668 4.771-1.26 1.26-3.207 1.541-4.771.668-32.826-18.236-50.9 13.402-51.654 14.76-.658 1.184-1.871 1.955-3.223 2.047-.094.007-.185.011-.275.011zm-26.75-23.639c.744 0 1.496.025 2.256.08 8.912.633 17.035 4.969 24.205 12.91 6.721-8.801 23.812-26.123 49.512-17.535-8.58-25.697 8.732-42.791 17.535-49.512-7.939-7.17-12.277-15.293-12.91-24.205-.93-13.076 6.484-24.006 10.381-28.785-14.281-21.078-8.385-38.98-1.807-49.576-49.424 17.221-57.072 64.092-58.234 78.898-.123 1.557-1.139 2.9-2.604 3.439-1.463.541-3.109.178-4.213-.924l-4.277-4.277c-5.027-5.023-13.789-5.027-18.812 0-2.514 2.512-3.896 5.854-3.896 9.406s1.385 6.893 3.896 9.406l4.277 4.277c1.104 1.104 1.465 2.748.924 4.213-.539 1.465-1.883 2.48-3.439 2.604-14.807 1.162-61.678 8.811-78.896 58.236 10.596-6.58 28.5-12.475 49.576 1.805 4.498-3.669 14.457-10.46 26.526-10.46z" fill="#4c241d"/></g><g><path d="m138.798 168.246-19.721-19.721" fill="#fff"/><path d="m138.797 172.245c-1.023 0-2.047-.391-2.828-1.172l-19.721-19.721c-1.562-1.562-1.562-4.094 0-5.656s4.094-1.562 5.656 0l19.721 19.721c1.562 1.562 1.562 4.094 0 5.656-.781.781-1.805 1.172-2.828 1.172z" fill="#4c241d"/></g><g><path d="m114.329 192.715-19.721-19.722" fill="#fff"/><path d="m114.328 196.714c-1.023 0-2.047-.391-2.828-1.172l-19.721-19.721c-1.562-1.562-1.562-4.094 0-5.656s4.094-1.562 5.656 0l19.721 19.721c1.562 1.562 1.562 4.094 0 5.656-.781.781-1.804 1.172-2.828 1.172z" fill="#4c241d"/></g><g fill="#4c241d"><path d="m224.863 254.987c-1.023 0-2.047-.391-2.828-1.172-1.562-1.562-1.562-4.094 0-5.656l11.641-11.641c1.562-1.562 4.094-1.562 5.656 0s1.562 4.094 0 5.656l-11.641 11.641c-.781.782-1.804 1.172-2.828 1.172z"/><path d="m236.504 254.987c-1.023 0-2.047-.391-2.828-1.172l-11.641-11.641c-1.562-1.562-1.562-4.094 0-5.656s4.094-1.562 5.656 0l11.641 11.641c1.562 1.562 1.562 4.094 0 5.656-.781.782-1.805 1.172-2.828 1.172z"/><path d="m36.863 134.987c-1.023 0-2.047-.391-2.828-1.172-1.562-1.562-1.562-4.094 0-5.656l11.641-11.641c1.562-1.562 4.094-1.562 5.656 0s1.562 4.094 0 5.656l-11.641 11.641c-.781.782-1.804 1.172-2.828 1.172z"/><path d="m48.504 134.987c-1.023 0-2.047-.391-2.828-1.172l-11.641-11.641c-1.562-1.562-1.562-4.094 0-5.656s4.094-1.562 5.656 0l11.641 11.641c1.562 1.562 1.562 4.094 0 5.656-.781.782-1.805 1.172-2.828 1.172z"/><circle cx="36.684" cy="59.167" r="4.324"/><circle cx="260.684" cy="203.167" r="4.324"/><path d="m96.684 105.167c-.008 0-.016 0-.025 0-3.738-.006-7.252-1.469-9.893-4.119-2.639-2.648-4.088-6.166-4.082-9.906.006-3.738 1.469-7.252 4.119-9.893 2.643-2.633 6.15-4.082 9.881-4.082h.025c3.738.006 7.252 1.469 9.893 4.119 2.639 2.648 4.088 6.166 4.082 9.906l-4-.008 4 .008c-.006 3.738-1.469 7.252-4.119 9.893-2.643 2.633-6.151 4.082-9.881 4.082zm0-20c-1.6 0-3.102.621-4.234 1.75-1.137 1.131-1.764 2.637-1.766 4.24-.002 1.602.619 3.109 1.75 4.244 1.131 1.137 2.637 1.764 4.24 1.766h.01c1.6 0 3.102-.621 4.234-1.75 1.137-1.131 1.764-2.637 1.766-4.24.002-1.602-.619-3.109-1.75-4.244-1.131-1.137-2.637-1.764-4.24-1.766-.003 0-.006 0-.01 0z"/></g><g><path d="m208.684 33.167c-34.188 0-62 27.812-62 62s27.812 62 62 62 62-27.812 62-62-27.813-62-62-62zm-50 62c0-27.57 22.43-50 50-50 11.626 0 22.311 4.022 30.812 10.703l-70.109 70.109c-6.681-8.501-10.703-19.186-10.703-30.812zm50 50c-11.626 0-22.311-4.022-30.812-10.703l70.109-70.109c6.681 8.501 10.703 19.186 10.703 30.812 0 27.57-22.43 50-50 50z" fill="#e66353"/><path d="m208.684 161.167c-36.393 0-66-29.607-66-66s29.607-66 66-66 66 29.607 66 66-29.608 66-66 66zm0-124c-31.98 0-58 26.02-58 58s26.02 58 58 58 58-26.02 58-58-26.02-58-58-58zm0 112c-12.15 0-23.66-3.996-33.283-11.559-.9-.705-1.453-1.764-1.521-2.906-.068-1.141.355-2.258 1.164-3.066l70.109-70.109c.811-.809 1.928-1.242 3.066-1.164 1.143.068 2.201.621 2.906 1.521 7.562 9.623 11.559 21.133 11.559 33.283 0 29.775-24.225 54-54 54zm-24.643-15.217c7.381 4.734 15.814 7.217 24.643 7.217 25.365 0 46-20.635 46-46 0-8.828-2.482-17.262-7.217-24.643zm-14.654-3.971c-.08 0-.158-.002-.238-.008-1.143-.068-2.201-.621-2.906-1.521-7.562-9.623-11.559-21.133-11.559-33.283 0-29.775 24.225-54 54-54 12.15 0 23.66 3.996 33.283 11.559.9.705 1.453 1.764 1.521 2.906.068 1.141-.355 2.258-1.164 3.066l-70.109 70.109c-.752.753-1.772 1.172-2.828 1.172zm39.297-80.812c-25.365 0-46 20.635-46 46 0 8.828 2.482 17.262 7.217 24.643l63.426-63.426c-7.382-4.735-15.815-7.217-24.643-7.217z" fill="#4c241d"/></g></g></svg>