<svg id="Layer_1" enable-background="new 0 0 512 512" height="512" viewBox="0 0 512 512" width="512" xmlns="http://www.w3.org/2000/svg"><g><g fill="#9ed643"><path d="m91 44.292c-4.161 0-7.534 3.373-7.534 7.534v9.094c0 4.161 3.373 7.534 7.534 7.534s7.534-3.373 7.534-7.534v-9.094c0-4.161-3.373-7.534-7.534-7.534z"/><path d="m91 122.129c-4.161 0-7.534 3.373-7.534 7.534v9.095c0 4.161 3.373 7.534 7.534 7.534s7.534-3.373 7.534-7.534v-9.095c0-4.161-3.373-7.534-7.534-7.534z"/><path d="m65.593 59.229c-2.943-2.942-7.713-2.942-10.655 0-2.942 2.943-2.943 7.713 0 10.655l6.431 6.431c1.472 1.471 3.4 2.207 5.328 2.207s3.856-.736 5.328-2.206c2.942-2.943 2.943-7.713 0-10.655z"/><path d="m120.632 114.268c-2.943-2.942-7.713-2.942-10.655 0-2.942 2.943-2.943 7.713 0 10.655l6.431 6.431c1.472 1.471 3.4 2.207 5.328 2.207s3.856-.736 5.327-2.206c2.942-2.943 2.943-7.713 0-10.655z"/><path d="m64.163 95.292c0-4.161-3.373-7.534-7.534-7.534h-9.095c-4.161 0-7.534 3.373-7.534 7.534s3.373 7.534 7.534 7.534h9.095c4.161 0 7.534-3.373 7.534-7.534z"/><path d="m134.466 87.758h-9.095c-4.161 0-7.534 3.373-7.534 7.534s3.373 7.534 7.534 7.534h9.095c4.161 0 7.534-3.373 7.534-7.534s-3.373-7.534-7.534-7.534z"/><path d="m61.368 114.268-6.431 6.431c-2.942 2.943-2.942 7.713 0 10.655 1.472 1.471 3.399 2.206 5.327 2.206s3.856-.736 5.328-2.207l6.431-6.431c2.942-2.943 2.942-7.713 0-10.655-2.943-2.941-7.712-2.941-10.655.001z"/><path d="m115.304 78.522c1.928 0 3.856-.736 5.328-2.207l6.431-6.431c2.942-2.943 2.942-7.713 0-10.655-2.943-2.942-7.712-2.942-10.655 0l-6.431 6.431c-2.942 2.943-2.942 7.713 0 10.655 1.471 1.472 3.399 2.207 5.327 2.207z"/></g><path d="m213.254 512h158.889c2.209 0 4-1.791 4-4v-119.346h-166.889v119.346c0 2.209 1.791 4 4 4z" fill="#fdaa8e"/><path d="m345.238 388.654v123.346h26.905c2.209 0 4-1.791 4-4v-119.346z" fill="#fd9b7a"/><path d="m416.178 342.698c0 42.111-34.157 76.262-76.303 76.262h-113.01c-35.367 0-64.046-28.663-64.046-64.011v-306.206c0-8.739 3.539-16.647 9.278-22.382 5.896-5.893 14.086-9.465 23.117-9.265 17.312.385 30.949 14.977 30.949 32.294v185.716h126.686c-.013-2.339-.013-125.942-.013-125.942 0-8.739 3.552-16.66 9.278-22.382 5.581-5.59 13.251-9.093 21.733-9.266 17.779-.363 32.332 14.565 32.332 32.348v232.834z" fill="#ffc39c"/><g fill="#fdaa8e"><path d="m195.257 48.743v155.458c0 17.069 13.837 30.905 30.905 30.905v-185.684c0-17.256-13.527-31.845-30.777-32.321-5.949-.164-11.533 1.316-16.348 4.014 9.675 5.418 16.22 15.758 16.22 27.628z"/><path d="m384.507 77.51c-5.612 0-10.882 1.463-15.454 4.023 9.675 5.415 16.22 15.752 16.22 27.631v233.533c0 42.111-34.157 76.262-76.303 76.262h30.905c42.146 0 76.303-34.151 76.303-76.262v-233.532c0-17.492-14.183-31.655-31.671-31.655z"/></g><path d="m255.933 315.866c-17.067-22.52-43.337-33.972-69.581-33.078-9.069.309-17.751-3.693-23.221-10.941l-50.168-66.473c-11.78-15.609-33.98-18.712-49.549-6.925-15.547 11.77-18.589 33.928-6.794 49.491l54.902 72.445 47.482 62.654c39.159 51.632 74.007 40.697 120.494 35.92 0 0 7.652-30.439 2.584-59.784-3.249-18.806-26.149-43.309-26.149-43.309z" fill="#ffc39c"/><path d="m282.081 359.173c-3.248-18.805-26.148-43.308-26.148-43.308-17.067-22.52-43.337-33.972-69.581-33.078-9.069.309-17.751-3.693-23.221-10.941l-50.168-66.473c-10.369-13.74-28.811-17.783-43.698-10.517 4.883 2.367 9.298 5.887 12.793 10.517l50.168 66.473c5.47 7.248 14.152 11.25 23.221 10.941 26.244-.893 52.514 10.559 69.581 33.078 0 0 22.9 24.503 26.148 43.308 5.069 29.345-2.583 59.784-2.583 59.784-10.702 1.1-20.786 2.525-30.449 3.439 18.924 2.657 38.765-1.117 61.355-3.439-.002.001 7.651-30.439 2.582-59.784z" fill="#fdaa8e"/><path d="m226.16 235.107h63.339v-203.438c-.001-17.49-14.179-31.669-31.67-31.669-17.491 0-31.669 14.179-31.669 31.669z" fill="#ffc39c"/><path d="m257.829 0c-5.613 0-10.881 1.466-15.453 4.028 9.674 5.42 16.217 15.764 16.217 27.642v175.237c0 15.574 12.626 28.2 28.2 28.2 1.494 0 2.705-1.211 2.705-2.705v-200.733c.001-17.49-14.178-31.669-31.669-31.669z" fill="#fdaa8e"/><path d="m352.645 235.203.192-183.559c0-17.481-14.179-31.652-31.669-31.652-17.491 0-31.669 14.179-31.669 31.669v183.35c-.001-.001 63.146.192 63.146.192z" fill="#ffc39c"/><path d="m321.168 19.991c-5.612 0-10.88 1.466-15.451 4.027 9.673 5.417 16.215 15.755 16.215 27.626l-.163 155.316c-.016 15.555 12.564 28.187 28.119 28.234 1.521.005 2.758-1.227 2.759-2.748l.19-180.803c0-17.481-14.178-31.652-31.669-31.652z" fill="#fdaa8e"/><g fill="#48bd40"><path d="m395.5 342.46c-4.141 0-7.498 3.357-7.498 7.498v14.438c0 4.141 3.356 7.498 7.498 7.498s7.498-3.357 7.498-7.498v-14.438c-.001-4.141-3.357-7.498-7.498-7.498z"/><path d="m395.5 466.027c-4.141 0-7.498 3.357-7.498 7.498v14.438c0 4.141 3.356 7.498 7.498 7.498s7.498-3.357 7.498-7.498v-14.438c-.001-4.142-3.357-7.498-7.498-7.498z"/><path d="m351.615 385.679c1.464 1.464 3.383 2.196 5.302 2.196 1.918 0 3.838-.732 5.301-2.196 2.929-2.928 2.929-7.675.001-10.603l-10.209-10.209c-2.928-2.928-7.676-2.928-10.603 0-2.929 2.928-2.929 7.675-.001 10.603z"/><path d="m439.385 452.241c-2.929-2.928-7.676-2.928-10.604 0s-2.928 7.676 0 10.603l10.209 10.209c1.464 1.464 3.384 2.196 5.302 2.196s3.838-.732 5.302-2.196c2.928-2.928 2.928-7.676 0-10.603z"/><path d="m348.433 418.96c0-4.141-3.356-7.498-7.498-7.498h-14.437c-4.141 0-7.498 3.357-7.498 7.498s3.356 7.498 7.498 7.498h14.437c4.142 0 7.498-3.357 7.498-7.498z"/><path d="m464.502 411.462h-14.438c-4.141 0-7.498 3.357-7.498 7.498s3.356 7.498 7.498 7.498h14.438c4.141 0 7.498-3.357 7.498-7.498s-3.356-7.498-7.498-7.498z"/><path d="m351.615 452.241-10.209 10.209c-2.928 2.928-2.928 7.676 0 10.603 1.464 1.464 3.384 2.196 5.302 2.196s3.838-.732 5.302-2.196l10.209-10.209c2.928-2.928 2.928-7.676 0-10.603-2.929-2.927-7.676-2.927-10.604 0z"/><path d="m434.083 387.875c1.918 0 3.838-.732 5.302-2.196l10.209-10.209c2.928-2.928 2.928-7.676-.001-10.603-2.927-2.929-7.675-2.928-10.603 0l-10.209 10.209c-2.928 2.928-2.928 7.676.001 10.603 1.463 1.464 3.383 2.196 5.301 2.196z"/></g><circle cx="395.5" cy="418.96" fill="#62d152" r="55.5"/><path d="m395.5 363.46c-5.467 0-10.744.804-15.734 2.277 22.986 6.785 39.766 28.039 39.766 53.223s-16.78 46.438-39.766 53.223c4.99 1.473 10.267 2.277 15.734 2.277 30.652 0 55.5-24.848 55.5-55.5s-24.848-55.5-55.5-55.5z" fill="#48bd40"/><circle cx="391.776" cy="410.574" fill="#ffc808" r="16.783"/><circle cx="91" cy="95.292" fill="#b1e75a" r="34"/><path d="m91 61.292c-5.714 0-11.095 1.416-15.823 3.907 10.806 5.694 18.177 17.03 18.177 30.093s-7.371 24.399-18.177 30.093c4.727 2.491 10.108 3.907 15.823 3.907 18.778 0 34-15.222 34-34s-15.222-34-34-34z" fill="#9ed643"/></g></svg>