<svg id="Layer_3" enable-background="new 0 0 64 64" height="512" viewBox="0 0 64 64" width="512" xmlns="http://www.w3.org/2000/svg"><g><circle cx="36" cy="29" r="3"/><circle cx="26" cy="38" r="4"/><circle cx="39.5" cy="40.5" r="1.5"/><circle cx="22" cy="23" r="1"/><circle cx="42" cy="22" r="1"/><path d="m59.45 26c-1.234.016-2.408.611-3.15 1.6-1.127 1.503-2.921 2.4-4.8 2.4-1.833 0-3.609-.538-5.135-1.555l-.92-.613 1.109-1.664.92.613c.933.622 1.986 1.007 3.086 1.15-.579-2.644-1.727-5.158-3.36-7.331-.299-.398-.259-.956.093-1.308l1.938-1.938c.874-.874 2.035-1.354 3.269-1.354.7 0 1.358-.272 1.854-.768l.642-.642c-.059-1.467-.658-2.839-1.702-3.883s-2.416-1.644-3.883-1.702l-.642.642c-.497.495-.769 1.153-.769 1.853 0 1.234-.48 2.395-1.354 3.268l-1.938 1.938c-.352.352-.908.392-1.308.093-2.173-1.633-4.687-2.78-7.331-3.36.143 1.1.528 2.153 1.15 3.086l.613.92-1.664 1.109-.613-.92c-1.017-1.525-1.555-3.301-1.555-5.134 0-1.878.897-3.672 2.4-4.8.989-.742 1.584-1.916 1.6-3.15-1.694-1.016-3.621-1.55-5.605-1.55h-.79c-1.984 0-3.911.534-5.605 1.55.016 1.234.611 2.408 1.6 3.15 1.503 1.127 2.4 2.921 2.4 4.8 0 1.833-.538 3.609-1.555 5.135l-.613.92-1.664-1.109.613-.92c.622-.933 1.007-1.986 1.15-3.086-2.644.579-5.158 1.727-7.331 3.36-.398.299-.957.259-1.308-.093l-1.938-1.938c-.874-.874-1.354-2.035-1.354-3.269 0-.7-.272-1.358-.768-1.854l-.642-.641c-1.467.059-2.839.658-3.883 1.702s-1.644 2.416-1.702 3.883l.642.642c.495.496 1.153.768 1.853.768 1.234 0 2.395.48 3.268 1.354l1.938 1.938c.352.352.392.91.093 1.308-1.633 2.173-2.78 4.687-3.36 7.331 1.1-.143 2.153-.528 3.086-1.15l.92-.613 1.109 1.664-.92.613c-1.525 1.017-3.301 1.555-5.134 1.555-1.878 0-3.672-.897-4.8-2.4-.742-.989-1.916-1.584-3.15-1.6-1.016 1.694-1.55 3.621-1.55 5.605v.79c0 1.984.534 3.911 1.55 5.605 1.234-.016 2.408-.611 3.15-1.6 1.127-1.503 2.921-2.4 4.8-2.4 1.833 0 3.609.538 5.135 1.555l.92.613-1.109 1.664-.92-.613c-.933-.622-1.986-1.007-3.086-1.15.579 2.644 1.727 5.158 3.36 7.331.299.398.259.956-.093 1.308l-1.938 1.938c-.874.874-2.035 1.354-3.269 1.354-.7 0-1.358.272-1.854.768l-.641.642c.059 1.467.658 2.839 1.702 3.883s2.416 1.644 3.883 1.702l.642-.642c.496-.495.768-1.153.768-1.853 0-1.234.48-2.395 1.354-3.268l1.938-1.938c.351-.352.908-.392 1.308-.093 2.173 1.633 4.687 2.78 7.331 3.36-.143-1.1-.528-2.153-1.15-3.086l-.613-.92 1.664-1.109.613.92c1.017 1.525 1.555 3.301 1.555 5.134 0 1.878-.897 3.672-2.4 4.8-.989.742-1.584 1.916-1.6 3.15 1.693 1.016 3.62 1.55 5.605 1.55h.79c1.984 0 3.911-.534 5.604-1.55-.016-1.234-.611-2.408-1.6-3.15-1.503-1.127-2.4-2.921-2.4-4.8 0-1.833.538-3.609 1.555-5.135l.613-.92 1.664 1.109-.613.92c-.622.933-1.007 1.986-1.15 3.086 2.644-.579 5.158-1.727 7.331-3.36.398-.299.956-.259 1.308.093l1.938 1.938c.875.874 1.355 2.035 1.355 3.269 0 .7.272 1.358.768 1.854l.642.642c1.467-.059 2.839-.658 3.883-1.702s1.644-2.416 1.702-3.883l-.642-.642c-.495-.497-1.153-.769-1.853-.769-1.234 0-2.395-.48-3.268-1.354l-1.938-1.938c-.352-.352-.392-.91-.093-1.308 1.633-2.173 2.78-4.687 3.36-7.331-1.1.143-2.153.528-3.086 1.15l-.92.613-1.109-1.664.92-.613c1.525-1.017 3.301-1.555 5.134-1.555 1.878 0 3.672.897 4.8 2.4.742.989 1.916 1.584 3.15 1.6 1.016-1.693 1.55-3.62 1.55-5.605v-.79c0-1.984-.534-3.911-1.55-5.605zm-40.45-3c0-1.654 1.346-3 3-3s3 1.346 3 3-1.346 3-3 3-3-1.346-3-3zm7 21c-3.309 0-6-2.691-6-6s2.691-6 6-6 6 2.691 6 6-2.691 6-6 6zm5-15c0-2.757 2.243-5 5-5s5 2.243 5 5-2.243 5-5 5-5-2.243-5-5zm8.5 15c-1.93 0-3.5-1.57-3.5-3.5s1.57-3.5 3.5-3.5 3.5 1.57 3.5 3.5-1.57 3.5-3.5 3.5zm2.5-19c-1.654 0-3-1.346-3-3s1.346-3 3-3 3 1.346 3 3-1.346 3-3 3z"/></g></svg>