<svg height="512" viewBox="0 0 64 64" width="512" xmlns="http://www.w3.org/2000/svg"><g id="coronavirus-virus-covid19-handsake-hand"><circle cx="32" cy="32" fill="#e6e7e8" r="29"/><path d="m39.41 52.138a3.072 3.072 0 0 1 .446 3.9 2.994 2.994 0 0 1 -4.6.438l-1.139-1.138-17.673-16.267-5.657-5.657 16.96-16.97h.01l2.889 2.768.014-.014 6.29 5.024 14.142 14.142 3.163 3.158a3 3 0 1 1 -4.24 4.25l-.711-.711.09.095a3 3 0 1 1 -4.24 4.24l-.71-.71-.084-.086a3.071 3.071 0 0 1 .446 3.9 2.994 2.994 0 0 1 -4.6.438z" fill="#ffb19d"/><path d="m38.381 56.35a2.968 2.968 0 0 1 -2.121-.877l-1.139-1.138-17.677-16.264-5.657-5.657 15.961-15.97-16.96 16.97 5.657 5.657 17.676 16.264 1.139 1.138a2.994 2.994 0 0 0 4.6-.438c.033-.048.054-.1.084-.149a2.954 2.954 0 0 1 -1.563.464z" fill="#e5a99a"/><path d="m41.899 12.201-5.656 5.657.015.016 9.151-2.164z" fill="none"/><path d="m41.192 22.808-4.934-4.934-5.598 1.326-.014.014-4.232 4.231a3 3 0 0 0 0 4.242 3 3 0 0 0 4.241 0l3.464-3.464a2 2 0 0 1 2.829 0l1.414 1.414 12.73 12.727.707.707 2.828-2.828z" fill="#ff9478"/><path d="m35.95 23.222a2 2 0 0 0 -2.829 0l-3.464 3.464a2.994 2.994 0 0 1 -3.681.43 2.9 2.9 0 0 0 .44.569 3 3 0 0 0 4.241 0l3.464-3.464a2 2 0 0 1 2.829 0z" fill="#e5856c"/><path d="m27.757 16.444-5.656-5.657-16.971 16.97 5.657 5.657 16.96-16.97z" fill="#004fac"/><path d="m27.747 16.444-16.96 16.97 16.97-16.97z" fill="#9bc9ff"/><path d="m25.576 38.424a3 3 0 0 0 -4.243-4.243l-4.693 4.693-.2.2-.773.773a3 3 0 1 0 4.242 4.243z" fill="#ff9478"/><path d="m25.577 38.423-2.832 2.832 4.242-4.242z" fill="#9bc9ff"/><path d="m19.913 44.087a3 3 0 1 0 4.242 4.243l5.657-5.657 1.411-1.411a2.972 2.972 0 0 0 0-4.242 3 3 0 0 0 -4.243 0l-4.242 4.242z" fill="#ff9478"/><path d="" fill="#9bc9ff"/><path d="m23.28 50.445a3 3 0 0 0 5.127 2.119l.7-.7 4.247-4.248.7-.7a3 3 0 0 0 .879-2.119 3.041 3.041 0 0 0 -.879-2.129 3 3 0 0 0 -4.238 0l-5.657 5.657a3.018 3.018 0 0 0 -.879 2.12z" fill="#ff9478"/><path d="m29.106 51.864a2.992 2.992 0 0 0 0 4.238 3.01 3.01 0 0 0 4.247 0l4.238-4.238a2.806 2.806 0 0 0 .529-.73c.01 0 .01 0 0-.01a2.909 2.909 0 0 0 .35-1.379 3.043 3.043 0 0 0 -.879-2.129 3 3 0 0 0 -4.237 0z" fill="#ff9478"/><g fill="#e5856c"><path d="m25.577 34.18a3.02 3.02 0 0 0 -.569-.436 2.988 2.988 0 0 1 .449 1.558 3.019 3.019 0 0 1 -.88 2.121l-5.663 5.663a3 3 0 0 1 -3.673.436 3.069 3.069 0 0 0 .431.564 3 3 0 0 0 4.242 0l5.663-5.663a3 3 0 0 0 0-4.243z"/><path d="m31.23 37.013a2.986 2.986 0 0 0 -.557-.43 2.949 2.949 0 0 1 -.443 3.672l-1.411 1.411-5.657 5.657a3 3 0 0 1 -3.673.436 3.069 3.069 0 0 0 .431.564 3 3 0 0 0 4.242 0l5.657-5.657 1.411-1.411a2.972 2.972 0 0 0 0-4.242z"/><path d="m34.054 42.669a3.039 3.039 0 0 0 -.571-.437 2.976 2.976 0 0 1 -.429 3.685l-.7.7-4.247 4.248-.7.7a2.984 2.984 0 0 1 -3.677.435 3.089 3.089 0 0 0 .429.562 2.993 2.993 0 0 0 4.248 0l.7-.7 4.247-4.248.7-.7a3 3 0 0 0 .879-2.119 3.041 3.041 0 0 0 -.879-2.126z"/><path d="m37.592 47.616a2.991 2.991 0 0 0 -.571-.436 3.009 3.009 0 0 1 .45 1.565 2.909 2.909 0 0 1 -.35 1.379c.01.01.01.01 0 .01a2.806 2.806 0 0 1 -.529.73l-4.238 4.236a3.009 3.009 0 0 1 -3.684.433 2.978 2.978 0 0 0 4.684.567l4.238-4.238a2.806 2.806 0 0 0 .529-.73c.01 0 .01 0 0-.01a2.909 2.909 0 0 0 .35-1.379 3.043 3.043 0 0 0 -.879-2.127z"/></g><path d="m37.546 14.004h8v7h-8z" fill="#004fac" transform="matrix(.707 -.707 .707 .707 -.209 34.504)"/><path d="m46.738 17.197h8v19h-8z" fill="#004fac" transform="matrix(.707 -.707 .707 .707 -4.016 43.697)"/><path d="m32 2a30 30 0 1 0 30 30 30.034 30.034 0 0 0 -30-30zm0 2a27.889 27.889 0 0 1 19.066 7.52l-39.546 39.546a27.98 27.98 0 0 1 20.48-47.066zm0 56a27.889 27.889 0 0 1 -19.066-7.52l39.546-39.546a27.98 27.98 0 0 1 -20.48 47.066z" fill="#ed1c24"/></g></svg>