<svg id="Capa_1" enable-background="new 0 0 512 512" height="512" viewBox="0 0 512 512" width="512" xmlns="http://www.w3.org/2000/svg"><g><path d="m286 91c-47.622 0-90.82 24.346-115.547 65.127h.015l-5.422 8.919-58.665 96.52c-10.064 16.363-15.381 35.186-15.381 54.434 0 57.891 47.109 105 105 105 25.591 0 50.215-9.419 69.346-26.499 20.2-18.047 44.399-32.681 69.976-42.334 4.025-1.518 7.603-3.615 11.351-5.495 48.65-24.401 74.327-77.368 74.327-120.672 0-74.443-60.557-135-135-135z" fill="#ffd5cc"/><path d="m421 226c0-74.443-60.557-135-135-135-47.622 0-90.82 24.346-115.547 65.127h.015l-5.422 8.919 181.626 181.626c48.651-24.401 74.328-77.368 74.328-120.672z" fill="#ffb3b3"/><path d="m286 151c-26.367 0-50.332 13.462-64.102 36.021l-13.185 21.693-51.209 84.245c-4.321 7.001-6.504 14.765-6.504 23.041 0 24.814 20.186 45 45 45 13.857 0 23.628-6.123 29.385-11.25 22.26-19.882 48.417-36.213 76.111-48.254 4.219-1.833 8.372-3.845 12.658-5.462 35.391-13.359 46.846-52.954 46.846-70.034 0-41.353-33.647-75-75-75z" fill="#ff435b"/><path d="m361 226c0-41.353-33.647-75-75-75-26.367 0-50.332 13.462-64.102 36.021l-13.185 21.693 92.783 92.783c4.219-1.833 8.372-3.845 12.658-5.462 35.391-13.36 46.846-52.955 46.846-70.035z" fill="#d0004f"/><path d="m256 0c-70.305 0-134.055 29.597-180.229 75.771s-75.771 109.924-75.771 180.229c0 140.61 115.39 256 256 256 70.305 0 134.055-29.597 180.229-75.771s75.771-109.924 75.771-180.229c0-140.61-115.39-256-256-256zm0 482c-124.072 0-226-101.928-226-226 0-56.646 22.2-108.322 56.873-147.916l317.043 317.043c-39.594 34.673-91.27 56.873-147.916 56.873zm169.127-78.084-317.043-317.043c39.594-34.673 91.27-56.873 147.916-56.873 124.072 0 226 101.928 226 226 0 56.646-22.2 108.322-56.873 147.916z" fill="#ff6c6c"/><path d="m256 0c-70.305 0-134.055 29.597-180.229 75.771l360.458 360.458c46.174-46.174 75.771-109.924 75.771-180.229 0-140.61-115.39-256-256-256zm169.127 403.916-317.043-317.043c39.594-34.673 91.27-56.873 147.916-56.873 124.072 0 226 101.928 226 226 0 56.646-22.2 108.322-56.873 147.916z" fill="#ff435b"/></g></svg>